0
SECTION
2
HEADER
9
$INSUNITS
70
4
9
$ACADVER
1
AC1014
9
$HANDSEED
5
FFFF
0
ENDSEC
0
SECTION
2
TABLES
0
TABLE
2
VPORT
5
8
100
AcDbSymbolTable
0
ENDTAB
0
TABLE
2
LTYPE
5
5
100
AcDbSymbolTable
0
LTYPE
5
14
100
AcDbSymbolTableRecord
100
AcDbLinetypeTableRecord
2
BYBLOCK
70
0
0
LTYPE
5
15
100
AcDbSymbolTableRecord
100
AcDbLinetypeTableRecord
2
BYLAYER
70
0
0
ENDTAB
0
TABLE
2
LAYER
5
2
100
AcDbSymbolTable
70
2
0
LAYER
5
50
100
AcDbSymbolTableRecord
100
AcDbLayerTableRecord
2
0
70
0
6
CONTINUOUS
0
ENDTAB
0
TABLE
2
STYLE
5
3
100
AcDbSymbolTable
70
1
0
STYLE
5
11
100
AcDbSymbolTableRecord
100
AcDbTextStyleTableRecord
2
STANDARD
70
0
0
ENDTAB
0
TABLE
2
VIEW
5
6
100
AcDbSymbolTable
70
0
0
ENDTAB
0
TABLE
2
UCS
5
7
100
AcDbSymbolTable
70
0
0
ENDTAB
0
TABLE
2
APPID
5
9
100
AcDbSymbolTable
70
2
0
APPID
5
12
100
AcDbSymbolTableRecord
100
AcDbRegAppTableRecord
2
ACAD
70
0
0
ENDTAB
0
TABLE
2
DIMSTYLE
5
A
100
AcDbSymbolTable
70
1
0
ENDTAB
0
TABLE
2
BLOCK_RECORD
5
1
100
AcDbSymbolTable
70
1
0
BLOCK_RECORD
5
1F
100
AcDbSymbolTableRecord
100
AcDbBlockTableRecord
2
*MODEL_SPACE
0
BLOCK_RECORD
5
1B
100
AcDbSymbolTableRecord
100
AcDbBlockTableRecord
2
*PAPER_SPACE
0
ENDTAB
0
ENDSEC
0
SECTION
2
BLOCKS
0
BLOCK
5
20
100
AcDbEntity
100
AcDbBlockBegin
2
*MODEL_SPACE
0
ENDBLK
5
21
100
AcDbEntity
100
AcDbBlockEnd
0
BLOCK
5
1C
100
AcDbEntity
100
AcDbBlockBegin
2
*PAPER_SPACE
0
ENDBLK
5
1D
100
AcDbEntity
100
AcDbBlockEnd
0
ENDSEC
0
SECTION
2
ENTITIES
0
LWPOLYLINE
5
100
100
AcDbEntity
8
0
100
AcDbPolyline
90
4
70
1
43
0.0
10
376.23220316569018
20
-128.99998289744062
10
376.23220316569018
20
-8.9999876340230323
10
16.232478785514836
20
-8.9999876340230323
10
16.232478785514886
20
-128.99998289744062
0
LINE
5
101
100
AcDbEntity
8
0
100
AcDbLine
10
138.00005531311035
20
-8.9135476986567195
30
0
11
138.00005531311035
21
-128.91346524556479
31
0
0
LINE
5
102
100
AcDbEntity
8
0
100
AcDbLine
10
197.99988136291506
20
-8.9135476986567195
30
0
11
197.99988136291506
21
-128.91346524556479
31
0
0
LINE
5
103
100
AcDbEntity
8
0
100
AcDbLine
10
257.99996579488123
20
-8.9135476986567195
30
0
11
257.99996579488123
21
-128.91346524556479
31
0
0
LINE
5
104
100
AcDbEntity
8
0
100
AcDbLine
10
318.00006637573244
20
-8.9135476986567195
30
0
11
318.00006637573244
21
-128.91346524556479
31
0
0
LWPOLYLINE
5
105
100
AcDbEntity
8
0
100
AcDbPolyline
90
4
70
1
43
0.0
10
385.23333333333341
20
-138.00005531311035
10
385.23333333333341
20
1.5039815861596241e-14
10
7.2324911514918018
20
0
10
7.2324911514918
20
-138.00005531311035
0
LINE
5
106
100
AcDbEntity
8
0
100
AcDbLine
10
141.17505531311036
20
-68.913905652364107
30
0
11
381.1746340433757
21
-69.001214599609398
31
0
0
LWPOLYLINE
5
107
100
AcDbEntity
8
0
100
AcDbPolyline
90
4
70
1
43
0.0
10
3.1751587132612871
20
150
10
3.1748412867387188
20
30.000081443786595
10
123.1749185562134
20
29.999548530578597
10
123.17518501281739
20
149.99968156866913
0
LINE
5
108
100
AcDbEntity
8
0
100
AcDbLine
10
61.906944783528658
20
27.858012580871563
30
0
11
64.442182477315285
21
27.858012580871563
31
0
0
SPLINE
5
109
100
AcDbEntity
8
0
100
AcDbSpline
70
4
71
3
72
8
73
4
74
0
42
0.000000001
43
0.0000000001
44
0.0000000001
40
0
40
0
40
0
40
0
40
1
40
1
40
1
40
1
41
1
41
1
41
1
41
1
10
64.442182477315285
20
27.858012580871563
30
0
10
63.652663485209153
20
26.994677035013819
30
0
10
62.452781136830652
20
26.63431466420489
30
0
10
61.31824525197348
20
26.920327568054176
30
0
0
SPLINE
5
110
100
AcDbEntity
8
0
100
AcDbSpline
70
4
71
3
72
8
73
4
74
0
42
0.000000001
43
0.0000000001
44
0.0000000001
40
0
40
0
40
0
40
0
40
1
40
1
40
1
40
1
41
1
41
1
41
1
41
1
10
61.31824525197348
20
26.920327568054176
30
0
10
60.183713404337581
20
27.206348546346018
30
0
10
59.297624079386402
20
28.092171414693183
30
0
10
59.011873594919848
20
29.226703262329092
30
0
0
SPLINE
5
111
100
AcDbEntity
8
0
100
AcDbSpline
70
4
71
3
72
8
73
4
74
0
42
0.000000001
43
0.0000000001
44
0.0000000001
40
0
40
0
40
0
40
0
40
1
40
1
40
1
40
1
41
1
41
1
41
1
41
1
10
59.011873594919848
20
29.226703262329092
30
0
10
58.725856653849291
20
30.361501566569
30
0
10
59.085956605275484
20
31.561387952168758
30
0
10
59.949554570515957
20
32.350906944274897
30
0
0
LINE
5
112
100
AcDbEntity
8
0
100
AcDbLine
10
59.949554570515957
20
32.350906944274897
30
0
11
59.949821027119967
21
137.7154492457708
31
0
0
SPLINE
5
113
100
AcDbEntity
8
0
100
AcDbSpline
70
4
71
3
72
8
73
4
74
0
42
0.000000001
43
0.0000000001
44
0.0000000001
40
0
40
0
40
0
40
0
40
1
40
1
40
1
40
1
41
1
41
1
41
1
41
1
10
59.949821027119967
20
137.71544924577077
30
0
10
59.086219024658213
20
138.50496520996094
30
0
10
58.726123110453294
20
139.70493032137551
30
0
10
59.012136014302577
20
140.83949042956033
30
0
0
SPLINE
5
114
100
AcDbEntity
8
0
100
AcDbSpline
70
4
71
3
72
8
73
4
74
0
42
0.000000001
43
0.0000000001
44
0.0000000001
40
0
40
0
40
0
40
0
40
1
40
1
40
1
40
1
41
1
41
1
41
1
41
1
10
59.012136014302577
20
140.83949042956033
30
0
10
59.298152955373133
20
141.97407627503077
30
0
10
60.18397582372031
20
142.85995415051778
30
0
10
61.318511708577489
20
143.14588933785757
30
0
0
SPLINE
5
115
100
AcDbEntity
8
0
100
AcDbSpline
70
4
71
3
72
8
73
4
74
0
42
0.000000001
43
0.0000000001
44
0.0000000001
40
0
40
0
40
0
40
0
40
1
40
1
40
1
40
1
41
1
41
1
41
1
41
1
10
61.318511708577489
20
143.14588933785757
30
0
10
62.453043556213387
20
143.43185127178828
30
0
10
63.652929941813163
20
143.0716473619143
30
0
10
64.442444896698007
20
142.20812660853068
30
0
0
LINE
5
116
100
AcDbEntity
8
0
100
AcDbLine
10
64.442444896698007
20
142.20812660853068
30
0
11
61.907207202911387
21
142.20815335512162
31
0
0
SPLINE
5
117
100
AcDbEntity
8
0
100
AcDbSpline
70
4
71
3
72
8
73
4
74
0
42
0.000000001
43
0.0000000001
44
0.0000000001
40
0
40
0
40
0
40
0
40
1
40
1
40
1
40
1
41
1
41
1
41
1
41
1
10
61.907207202911387
20
142.2081533551216
30
0
10
62.696726195017504
20
143.0716473619143
30
0
10
63.896608543396013
20
143.43185127178828
30
0
10
65.031144428253185
20
143.14588933785757
30
0
0
SPLINE
5
118
100
AcDbEntity
8
0
100
AcDbSpline
70
4
71
3
72
8
73
4
74
0
42
0.000000001
43
0.0000000001
44
0.0000000001
40
0
40
0
40
0
40
0
40
1
40
1
40
1
40
1
41
1
41
1
41
1
41
1
10
65.031144428253185
20
143.14588933785757
30
0
10
66.165676275889084
20
142.85992790857949
30
0
10
67.051765600840255
20
141.97405003309251
30
0
10
67.337516085306817
20
140.83946317831675
30
0
0
SPLINE
5
119
100
AcDbEntity
8
0
100
AcDbSpline
70
4
71
3
72
8
73
4
74
0
42
0.000000001
43
0.0000000001
44
0.0000000001
40
0
40
0
40
0
40
0
40
1
40
1
40
1
40
1
41
1
41
1
41
1
41
1
10
67.337516085306817
20
140.83946317831675
30
0
10
67.623533026377373
20
139.70490407943726
30
0
10
67.26343307495118
20
138.50496520996094
30
0
10
66.399835109710693
20
137.71542199452716
30
0
0
LINE
5
120
100
AcDbEntity
8
0
100
AcDbLine
10
66.399835109710693
20
137.71542199452716
30
0
11
66.399568653106684
21
32.350906944274875
31
0
0
SPLINE
5
121
100
AcDbEntity
8
0
100
AcDbSpline
70
4
71
3
72
8
73
4
74
0
42
0.000000001
43
0.0000000001
44
0.0000000001
40
0
40
0
40
0
40
0
40
1
40
1
40
1
40
1
41
1
41
1
41
1
41
1
10
66.399568653106698
20
32.350906944274897
30
0
10
67.263170655568445
20
31.561387952168758
30
0
10
67.623266569773364
20
30.361235109964984
30
0
10
67.337253665924081
20
29.226703262329092
30
0
0
SPLINE
5
122
100
AcDbEntity
8
0
100
AcDbSpline
70
4
71
3
72
8
73
4
74
0
42
0.000000001
43
0.0000000001
44
0.0000000001
40
0
40
0
40
0
40
0
40
1
40
1
40
1
40
1
41
1
41
1
41
1
41
1
10
67.337253665924081
20
29.226703262329092
30
0
10
67.051236724853524
20
28.092171414693183
30
0
10
66.165413856506362
20
27.206348546346018
30
0
10
65.030877971649176
20
26.920327568054176
30
0
0
SPLINE
5
123
100
AcDbEntity
8
0
100
AcDbSpline
70
4
71
3
72
8
73
4
74
0
42
0.000000001
43
0.0000000001
44
0.0000000001
40
0
40
0
40
0
40
0
40
1
40
1
40
1
40
1
41
1
41
1
41
1
41
1
10
65.030877971649176
20
26.920327568054176
30
0
10
63.89634612401327
20
26.63431466420489
30
0
10
62.696459738413502
20
26.994677035013819
30
0
10
61.906944783528658
20
27.858012580871563
30
0
0
LWPOLYLINE
5
124
100
AcDbEntity
8
0
100
AcDbPolyline
90
20
70
1
43
0.0
10
290.78266970316571
20
169.99995374679565
10
290.78266970316571
20
139.99990749359131
10
281.7828718185425
20
139.99990749359131
10
281.7828718185425
20
110.00012365976968
10
290.78266970316571
20
110.00012365976968
10
290.78266970316571
20
80.000081443786598
10
281.7828718185425
20
80.000081443786598
10
281.7828718185425
20
50.000031153360979
10
161.78276855945586
20
50.000031153360979
10
161.78276855945586
20
80.000081443786598
10
152.78278168241184
20
80.000081443786598
10
152.78278168241184
20
110.00012365976968
10
161.78276855945586
20
110.00012365976968
10
161.78276855945586
20
139.99990749359131
10
152.78278168241184
20
139.99990749359128
10
152.78278168241184
20
169.99995374679565
10
161.78276855945586
20
169.99995374679565
10
161.78276855945592
20
199.99999999999997
10
281.7828718185425
20
199.99999999999997
10
281.7828718185425
20
169.99995374679565
0
LINE
5
125
100
AcDbEntity
8
0
100
AcDbLine
10
427.50915781656897
20
59.999969863891579
30
0
11
427.50915781656897
21
176.62498944600424
31
0
0
LWPOLYLINE
5
126
100
AcDbEntity
8
0
100
AcDbPolyline
90
8
70
1
43
0.0
10
367.50909357070924
20
179.99998733202617
10
358.50910593668624
20
179.99998733202617
10
358.50910593668618
20
200.00000000000003
10
496.50904820760093
20
200.00000000000003
10
496.50904820760098
20
179.99998733202617
10
487.50898386637374
20
179.99998733202617
10
487.50898386637374
20
59.999969863891579
10
367.50909357070924
20
59.999969863891579
0
LWPOLYLINE
5
127
100
AcDbEntity
8
0
100
AcDbPolyline
90
272
70
1
43
0.0
10
543.97010434468586
20
-119.98298645019533
10
543.79813486735031
20
-119.99595400492352
10
543.62509956359861
20
-119.9999185562134
10
412.37501277128848
20
-119.99991855621339
10
412.20200169086462
20
-119.99595400492352
10
412.02999587853748
20
-119.98298645019533
10
411.86201214790344
20
-119.96208171844485
10
411.69500643412272
20
-119.93192367553712
10
411.53199656009679
20
-119.89408683776857
10
411.37200349966685
20
-119.84910411834719
10
411.21500000158949
20
-119.79592583974204
10
411.06199133396149
20
-119.73506876627607
10
410.91199847062427
20
-119.66813163757325
10
410.76700671513879
20
-119.59299087524415
10
410.62500553131099
20
-119.5120284398397
10
410.48900971412661
20
-119.42392012278241
10
410.3560034592947
20
-119.32999013264975
10
410.22900358041124
20
-119.22998008728028
10
410.10599853197732
20
-119.12388191223145
10
409.99000512758892
20
-119.01196206410728
10
409.87800756295519
20
-118.89501991271973
10
409.77100908756256
20
-118.77198963165286
10
409.67099702358246
20
-118.64498672485354
10
409.57699032624561
20
-118.51190376281738
10
409.48899000485738
20
-118.3759059270223
10
409.40800132751463
20
-118.23408641815186
10
409.33299177487692
20
-118.08910172780357
10
409.26599913438162
20
-117.93907858530682
10
409.20501286983495
20
-117.78588218688967
10
409.15199002424879
20
-117.62898769378664
10
409.10701134204862
20
-117.46891187032065
10
409.06899081071219
20
-117.30592924753827
10
409.03898719151812
20
-117.138982073466
10
409.01800575256345
20
-116.97096907297774
10
409.00498773256936
20
-116.79899152119957
10
408.999987634023
20
-116.62489039103191
10
408.999987634023
20
-93.374896430969244
10
409.00498773256936
20
-93.202127583821635
10
409.01800575256345
20
-93.029883575439456
10
409.03898719151812
20
-92.861870574951197
10
409.06899081071219
20
-92.694915326436387
10
409.10701134204862
20
-92.531932703653993
10
409.15199002424868
20
-92.372123336791987
10
409.20501286983489
20
-92.214962387084981
10
409.26599913438162
20
-92.062032445271825
10
409.33299177487692
20
-91.912017377217623
10
409.40800132751463
20
-91.767024612426781
10
409.48899000485738
20
-91.624946721394863
10
409.57699032624561
20
-91.488948885599783
10
409.67099702358246
20
-91.356124305725103
10
409.77100908756256
20
-91.229129473368346
10
409.87800756295519
20
-91.106099192301443
10
409.99000512758892
20
-90.988882509867352
10
410.10599853197732
20
-90.876962661743178
10
410.22900358041124
20
-90.770872561136912
10
410.35600345929458
20
-90.671120897928887
10
410.48900971412655
20
-90.576932525634788
10
410.62500553131099
20
-90.489090665181493
10
410.76700671513879
20
-90.40812822977702
10
410.91199847062427
20
-90.332979393005388
10
411.06199133396149
20
-90.266042264302584
10
411.21500000158949
20
-90.20492680867514
10
411.37200349966685
20
-90.152006912231457
10
411.53199656009679
20
-90.10703226725262
10
411.69500643412272
20
-90.068928972880059
10
411.8620121479035
20
-90.039029312133806
10
412.02999587853748
20
-90.018132654825877
10
412.20200169086462
20
-90.004898643493675
10
412.37501277128854
20
-89.999876340230315
10
418.00000150998437
20
-89.999876340230315
10
418.00000150998437
20
-60.000092506408706
10
412.37501277128848
20
-60.000092506408706
10
412.20200169086462
20
-59.996123917897549
10
412.02999587853748
20
-59.982893943786628
10
411.86201214790344
20
-59.961993249257418
10
411.69500643412272
20
-59.932093588511165
10
411.53199656009679
20
-59.89399433135987
10
411.37200349966685
20
-59.84901564915976
10
411.21500000158949
20
-59.796099789937351
10
411.06199133396149
20
-59.734980297088633
10
410.91199847062427
20
-59.668039131164562
10
410.76700671513879
20
-59.592898368835456
10
410.62500553131099
20
-59.511935933430998
10
410.48900971412661
20
-59.424094072977709
10
410.3560034592947
20
-59.32990166346233
10
410.22900358041124
20
-59.229887580871583
10
410.10599853197732
20
-59.124055862426765
10
409.99000512758892
20
-59.011873594919848
10
409.87800756295519
20
-58.894927406311048
10
409.77100908756256
20
-58.771897125244152
10
409.67099702358246
20
-58.644894218444826
10
409.57699032624561
20
-58.512073675791427
10
409.48899000485738
20
-58.37607987721762
10
409.40800132751463
20
-58.233997948964451
10
409.33299177487692
20
-58.089005184173594
10
409.26599913438162
20
-57.938986078898118
10
409.20501286983495
20
-57.786060174306243
10
409.15199002424879
20
-57.628895187377935
10
409.10701134204862
20
-57.469085820515957
10
409.06899081071219
20
-57.306103197733563
10
409.03898719151812
20
-57.138885529836031
10
409.01800575256345
20
-56.970876566569018
10
409.00498773256936
20
-56.798899014790855
10
408.999987634023
20
-56.625068378448503
10
408.999987634023
20
-33.375070381164555
10
409.00498773256936
20
-33.202033058802293
10
409.01800575256345
20
-33.0300534884135
10
409.03898719151812
20
-32.862044525146487
10
409.06899081071219
20
-32.695091295242314
10
409.10701134204862
20
-32.532108672459927
10
409.15199002424868
20
-32.372034867604576
10
409.20501286983489
20
-32.214873917897549
10
409.26599913438162
20
-32.0619439760844
10
409.33299177487692
20
-31.911924870808924
10
409.40800132751463
20
-31.766934124628708
10
409.48899000485738
20
-31.625116634368901
10
409.57699032624561
20
-31.489120817184457
10
409.67099702358246
20
-31.356035836537682
10
409.77100908756256
20
-31.229034948349007
10
409.87800756295519
20
-31.106004667282111
10
409.99000512758892
20
-30.989058478673304
10
410.10599853197732
20
-30.87687419255575
10
410.22900358041124
20
-30.771042474110928
10
410.35600345929458
20
-30.671028391520188
10
410.48900971412655
20
-30.577102438608811
10
410.62500553131099
20
-30.488996140162158
10
410.76700671513879
20
-30.408033704757695
10
410.91199847062427
20
-30.332890923817956
10
411.06199133396149
20
-30.265951776504522
10
411.21500000158949
20
-30.20509874025981
10
411.37200349966685
20
-30.151916424433391
10
411.53199656009679
20
-30.106937742233285
10
411.69500643412272
20
-30.069102923075363
10
411.8620121479035
20
-30.038938824335737
10
412.02999587853748
20
-30.018038129806524
10
412.20200169086462
20
-30.005072593688968
10
412.37501277128854
20
-30.000046253204353
10
418.00000150998437
20
-30.000046253204353
10
418.00000150998426
20
0
10
538.00005531311035
20
0
10
538.00005531311035
20
-30.000046253204353
10
543.62509956359861
20
-30.000046253204353
10
543.79813486735031
20
-30.005072593688968
10
543.97010434468586
20
-30.018038129806524
10
544.13811734517412
20
-30.038938824335737
10
544.3050806681315
20
-30.069102923075359
10
544.46805521647138
20
-30.106937742233285
10
544.62812296549475
20
-30.151916424433395
10
544.78502553304043
20
-30.20509874025981
10
544.93795547485342
20
-30.265951776504526
10
545.08797861735025
20
-30.33289092381796
10
545.23296330769858
20
-30.408033704757692
10
545.37504119873051
20
-30.488996140162151
10
545.51104710896811
20
-30.577102438608811
10
545.64413007100427
20
-30.671028391520188
10
545.77112490336106
20
-30.771042474110928
10
545.89388872782388
20
-30.87687419255575
10
546.01111348470056
20
-30.989058478673304
10
546.12195943196616
20
-31.106004667282107
10
546.22912343343103
20
-31.229034948349007
10
546.32887509663897
20
-31.356035836537686
10
546.42305539449058
20
-31.489120817184457
10
546.51090532938633
20
-31.625116634368901
10
546.59213422139487
20
-31.766934124628708
10
546.66700045267737
20
-31.911924870808921
10
546.73395373026528
20
-32.061943976084393
10
546.79401143391931
20
-32.214873917897549
10
546.84798100789396
20
-32.372034867604576
10
546.89295565287273
20
-32.532108672459927
10
546.9310670216878
20
-32.695091295242314
10
546.96095860799153
20
-32.862044525146487
10
546.98212979634604
20
-33.030053488413493
10
546.99509735107426
20
-33.202033058802293
10
547.0001196543376
20
-33.375070381164555
10
547.0001196543376
20
-56.625068378448503
10
546.99509735107426
20
-56.798899014790862
10
546.98212979634604
20
-56.970876566569018
10
546.96095860799153
20
-57.138885529836031
10
546.9310670216878
20
-57.306103197733563
10
546.89295565287273
20
-57.469085820515957
10
546.84798100789385
20
-57.628895187377935
10
546.79401143391931
20
-57.786060174306243
10
546.7339537302654
20
-57.938986078898118
10
546.66700045267748
20
-58.089005184173594
10
546.59213422139487
20
-58.233997948964443
10
546.51090532938633
20
-58.376079877217613
10
546.42305539449058
20
-58.512073675791434
10
546.32887509663897
20
-58.644894218444833
10
546.22912343343103
20
-58.771897125244152
10
546.12195943196616
20
-58.894927406311048
10
546.01111348470056
20
-59.011873594919848
10
545.89388872782388
20
-59.124055862426772
10
545.77112490336106
20
-59.229887580871591
10
545.64413007100416
20
-59.32990166346233
10
545.51104710896811
20
-59.424094072977709
10
545.37504119873051
20
-59.511935933430998
10
545.23296330769858
20
-59.592898368835456
10
545.08797861735036
20
-59.668039131164562
10
544.93795547485354
20
-59.734980297088633
10
544.78502553304043
20
-59.796099789937351
10
544.62812296549475
20
-59.84901564915976
10
544.46805521647138
20
-59.89399433135987
10
544.3050806681315
20
-59.932093588511151
10
544.13811734517412
20
-59.961993249257411
10
543.97010434468586
20
-59.982893943786628
10
543.79813486735031
20
-59.996123917897549
10
543.62509956359861
20
-60.000092506408706
10
538.00005531311035
20
-60.000092506408706
10
538.00005531311035
20
-89.999876340230315
10
543.62509956359861
20
-89.999876340230315
10
543.79813486735031
20
-90.004898643493647
10
543.97010434468586
20
-90.018132654825848
10
544.13811734517412
20
-90.039029312133806
10
544.3050806681315
20
-90.068928972880059
10
544.46805521647138
20
-90.10703226725262
10
544.62812296549475
20
-90.152006912231457
10
544.78502553304043
20
-90.20492680867514
10
544.93795547485342
20
-90.266042264302584
10
545.08797861735025
20
-90.332979393005388
10
545.23296330769858
20
-90.40812822977702
10
545.37504119873051
20
-90.489090665181493
10
545.51104710896811
20
-90.576932525634788
10
545.64413007100427
20
-90.671120897928873
10
545.77112490336106
20
-90.770872561136883
10
545.89388872782388
20
-90.876962661743178
10
546.01111348470056
20
-90.988882509867352
10
546.1230252583822
20
-91.106099192301443
10
546.22912343343103
20
-91.229129473368346
10
546.32887509663897
20
-91.356124305725103
10
546.42305539449058
20
-91.488948885599797
10
546.51090532938633
20
-91.624946721394863
10
546.59213422139487
20
-91.767024612426766
10
546.66700045267737
20
-91.912017377217623
10
546.7339537302654
20
-92.062032445271811
10
546.7950611114502
20
-92.214962387084981
10
546.84798100789396
20
-92.372123336792015
10
546.89295565287273
20
-92.531932703653993
10
546.9310670216878
20
-92.694915326436359
10
546.96095860799153
20
-92.861870574951197
10
546.98212979634604
20
-93.029883575439456
10
546.99509735107426
20
-93.202127583821621
10
547.0001196543376
20
-93.374896430969272
10
547.0001196543376
20
-116.62489039103193
10
546.99509735107426
20
-116.79899152119955
10
546.98212979634604
20
-116.97096907297774
10
546.96095860799153
20
-117.13898207346601
10
546.9310670216878
20
-117.30592924753827
10
546.89295565287273
20
-117.46891187032065
10
546.84798100789396
20
-117.62898769378664
10
546.7950611114502
20
-117.78588218688967
10
546.7339537302654
20
-117.93907858530682
10
546.66700045267748
20
-118.08910172780357
10
546.59213422139487
20
-118.23408641815186
10
546.51090532938633
20
-118.37590592702233
10
546.42305539449058
20
-118.51190376281741
10
546.32887509663897
20
-118.64498672485352
10
546.22912343343103
20
-118.77198963165284
10
546.1230252583822
20
-118.89501991271973
10
546.01111348470056
20
-119.01196206410728
10
545.89388872782388
20
-119.12388191223147
10
545.77112490336106
20
-119.2299800872803
10
545.64413007100416
20
-119.32999013264975
10
545.51104710896811
20
-119.42392012278241
10
545.37504119873051
20
-119.5120284398397
10
545.23296330769858
20
-119.59299087524415
10
545.08797861735036
20
-119.66813163757325
10
544.93795547485354
20
-119.73506876627607
10
544.78502553304043
20
-119.79592583974204
10
544.62812296549475
20
-119.84910411834719
10
544.46805521647138
20
-119.89408683776857
10
544.3050806681315
20
-119.93192367553712
10
544.13811734517412
20
-119.96208171844485
0
LINE
5
128
100
AcDbEntity
8
0
100
AcDbLine
10
477.99996280670166
20
-119.9999185562134
30
0
11
477.99996280670166
21
0
31
0
0
SPLINE
5
129
100
AcDbEntity
8
0
100
AcDbSpline
70
0
71
2
72
6
73
3
74
0
42
0.000000001
43
0.0000000001
44
0.0000000001
40
0
40
0
40
0
40
1
40
1
40
1
10
418.00000150998437
20
0
30
0
10
447.99991655349731
20
-26.999934641520188
30
0
10
477.99996280670166
20
0
30
0
0
SPLINE
5
130
100
AcDbEntity
8
0
100
AcDbSpline
70
0
71
2
72
6
73
3
74
0
42
0.000000001
43
0.0000000001
44
0.0000000001
40
0
40
0
40
0
40
1
40
1
40
1
10
477.89465592702231
20
-0.92863457202911392
30
0
10
507.89469814300537
20
-27.928622706731161
30
0
10
537.894748433431
20
-0.92863457202911392
30
0
0
LWPOLYLINE
5
131
100
AcDbEntity
8
0
100
AcDbPolyline
90
22
70
1
43
0.0
10
427.99963404337575
20
-269.9999185562134
10
421.23951695760098
20
-269.9999185562134
10
421.23951695760098
20
-299.99996884663904
10
50
20
-299.99996884663904
10
50
20
-269.9999185562134
10
56.758992719650266
20
-269.9999185562134
10
56.758992719650266
20
-239.99987634023032
10
50
20
-239.99987634023034
10
50
20
-210.00009250640872
10
56.758992719650266
20
-210.00009250640872
10
56.758992719650266
20
-180.00004625320435
10
50
20
-180.00004625320435
10
50
20
-150
10
172.23988196055097
20
-150
10
172.23988196055097
20
-160.0000063339869
10
178.99998289744062
20
-160.0000063339869
10
178.99998289744059
20
-180.00004625320435
10
427.99963404337569
20
-180.00004625320435
10
427.99963404337575
20
-210.00009250640872
10
421.23951695760098
20
-210.00009250640872
10
421.23951695760093
20
-239.99987634023032
10
427.99963404337569
20
-239.99987634023032
0
ENDSEC
0
SECTION
2
OBJECTS
0
DICTIONARY
5
C
100
AcDbDictionary
3
ACAD_GROUP
350
D
3
ACAD_MLINESTYLE
350
17
0
DICTIONARY
5
D
100
AcDbDictionary
0
DICTIONARY
5
1A
330
C
100
AcDbDictionary
0
DICTIONARY
5
17
100
AcDbDictionary
0
ENDSEC
0
EOF
